<svg xmlns="http://www.w3.org/2000/svg" viewBox="0 0 800 600" role="img" aria-labelledby="title desc">
<title>Health contact illustration</title><desc>Contact panel with clinic icons and communication elements.</desc>
<rect width="800" height="600" rx="36" fill="#eff6ff"/>
<rect x="95" y="120" width="300" height="340" rx="28" fill="#ffffff" stroke="#93c5fd" stroke-width="8"/>
<rect x="445" y="145" width="255" height="135" rx="24" fill="#ffffff" stroke="#93c5fd" stroke-width="8"/>
<rect x="445" y="315" width="255" height="145" rx="24" fill="#ffffff" stroke="#93c5fd" stroke-width="8"/>
<circle cx="245" cy="215" r="50" fill="#2563eb"/>
<rect x="180" y="275" width="130" height="100" rx="24" fill="#1d4ed8"/>
<circle cx="540" cy="210" r="28" fill="#1d4ed8"/>
<rect x="585" y="185" width="70" height="50" rx="14" fill="#2563eb"/>
<path d="M520 360c0-34 28-62 62-62s62 28 62 62-28 62-62 62-62-28-62-62Z" fill="#2563eb"/>
<path d="M602 356c0 20-15 39-36 49-14 7-31 9-45 4-9-13-7-32 6-46l33-37c18 4 42 16 42 30Z" fill="#ffffff"/>
<rect x="135" y="485" width="530" height="34" rx="17" fill="#dbeafe"/>
</svg>