<svg xmlns="http://www.w3.org/2000/svg" viewBox="0 0 800 600" role="img" aria-labelledby="title desc">
<title>Health services illustration</title><desc>Cards showing healthcare services and appointment tools.</desc>
<rect width="800" height="600" rx="36" fill="#eff6ff"/>
<rect x="90" y="100" width="180" height="180" rx="24" fill="#ffffff" stroke="#93c5fd" stroke-width="8"/>
<rect x="310" y="100" width="180" height="180" rx="24" fill="#ffffff" stroke="#93c5fd" stroke-width="8"/>
<rect x="530" y="100" width="180" height="180" rx="24" fill="#ffffff" stroke="#93c5fd" stroke-width="8"/>
<rect x="140" y="150" width="80" height="80" rx="16" fill="#1d4ed8"/>
<circle cx="400" cy="190" r="44" fill="#2563eb"/>
<path d="M620 150h30v30h24v30h-24v30h-30v-30h-30v-30h30z" fill="#1d4ed8"/>
<rect x="110" y="340" width="580" height="160" rx="28" fill="#ffffff" stroke="#93c5fd" stroke-width="8"/>
<rect x="145" y="380" width="120" height="18" rx="9" fill="#93c5fd"/>
<rect x="145" y="418" width="200" height="18" rx="9" fill="#dbeafe"/>
<rect x="145" y="456" width="160" height="18" rx="9" fill="#dbeafe"/>
<rect x="480" y="376" width="150" height="90" rx="20" fill="#2563eb"/>
<circle cx="555" cy="421" r="24" fill="#ffffff"/>
</svg>